999
profilcam
 0
SECTION
 2
ENTITIES
 0
LINE
 8
 0
 10
 0.000000
 20
 0.080000
 30
 0.0000
 11
 0.000102
 21
 0.085972
 31
 0.0000
 0
LINE
 8
 0
 10
 0.000102
 20
 0.085972
 30
 0.0000
 11
 0.000409
 21
 0.091893
 31
 0.0000
 0
LINE
 8
 0
 10
 0.000409
 20
 0.091893
 30
 0.0000
 11
 0.000921
 21
 0.097762
 31
 0.0000
 0
LINE
 8
 0
 10
 0.000921
 20
 0.097762
 30
 0.0000
 11
 0.001639
 21
 0.103578
 31
 0.0000
 0
LINE
 8
 0
 10
 0.001639
 20
 0.103578
 30
 0.0000
 11
 0.002563
 21
 0.109342
 31
 0.0000
 0
LINE
 8
 0
 10
 0.002563
 20
 0.109342
 30
 0.0000
 11
 0.003694
 21
 0.115052
 31
 0.0000
 0
LINE
 8
 0
 10
 0.003694
 20
 0.115052
 30
 0.0000
 11
 0.005032
 21
 0.120706
 31
 0.0000
 0
LINE
 8
 0
 10
 0.005032
 20
 0.120706
 30
 0.0000
 11
 0.006578
 21
 0.126305
 31
 0.0000
 0
LINE
 8
 0
 10
 0.006578
 20
 0.126305
 30
 0.0000
 11
 0.008333
 21
 0.131846
 31
 0.0000
 0
LINE
 8
 0
 10
 0.008333
 20
 0.131846
 30
 0.0000
 11
 0.010297
 21
 0.137327
 31
 0.0000
 0
LINE
 8
 0
 10
 0.010297
 20
 0.137327
 30
 0.0000
 11
 0.012470
 21
 0.142748
 31
 0.0000
 0
LINE
 8
 0
 10
 0.012470
 20
 0.142748
 30
 0.0000
 11
 0.014853
 21
 0.148105
 31
 0.0000
 0
LINE
 8
 0
 10
 0.014853
 20
 0.148105
 30
 0.0000
 11
 0.017446
 21
 0.153397
 31
 0.0000
 0
LINE
 8
 0
 10
 0.017446
 20
 0.153397
 30
 0.0000
 11
 0.020250
 21
 0.158621
 31
 0.0000
 0
LINE
 8
 0
 10
 0.020250
 20
 0.158621
 30
 0.0000
 11
 0.023265
 21
 0.163776
 31
 0.0000
 0
LINE
 8
 0
 10
 0.023265
 20
 0.163776
 30
 0.0000
 11
 0.026491
 21
 0.168858
 31
 0.0000
 0
LINE
 8
 0
 10
 0.026491
 20
 0.168858
 30
 0.0000
 11
 0.029930
 21
 0.173864
 31
 0.0000
 0
LINE
 8
 0
 10
 0.029930
 20
 0.173864
 30
 0.0000
 11
 0.033581
 21
 0.178791
 31
 0.0000
 0
LINE
 8
 0
 10
 0.033581
 20
 0.178791
 30
 0.0000
 11
 0.037444
 21
 0.183638
 31
 0.0000
 0
LINE
 8
 0
 10
 0.037444
 20
 0.183638
 30
 0.0000
 11
 0.041521
 21
 0.188399
 31
 0.0000
 0
LINE
 8
 0
 10
 0.041521
 20
 0.188399
 30
 0.0000
 11
 0.045811
 21
 0.193073
 31
 0.0000
 0
LINE
 8
 0
 10
 0.045811
 20
 0.193073
 30
 0.0000
 11
 0.050314
 21
 0.197655
 31
 0.0000
 0
LINE
 8
 0
 10
 0.050314
 20
 0.197655
 30
 0.0000
 11
 0.055031
 21
 0.202141
 31
 0.0000
 0
LINE
 8
 0
 10
 0.055031
 20
 0.202141
 30
 0.0000
 11
 0.059962
 21
 0.206529
 31
 0.0000
 0
LINE
 8
 0
 10
 0.059962
 20
 0.206529
 30
 0.0000
 11
 0.065107
 21
 0.210815
 31
 0.0000
 0
LINE
 8
 0
 10
 0.065107
 20
 0.210815
 30
 0.0000
 11
 0.070467
 21
 0.214994
 31
 0.0000
 0
LINE
 8
 0
 10
 0.070467
 20
 0.214994
 30
 0.0000
 11
 0.076040
 21
 0.219063
 31
 0.0000
 0
LINE
 8
 0
 10
 0.076040
 20
 0.219063
 30
 0.0000
 11
 0.081829
 21
 0.223018
 31
 0.0000
 0
LINE
 8
 0
 10
 0.081829
 20
 0.223018
 30
 0.0000
 11
 0.087832
 21
 0.226855
 31
 0.0000
 0
LINE
 8
 0
 10
 0.087832
 20
 0.226855
 30
 0.0000
 11
 0.094050
 21
 0.230569
 31
 0.0000
 0
LINE
 8
 0
 10
 0.094050
 20
 0.230569
 30
 0.0000
 11
 0.100482
 21
 0.234157
 31
 0.0000
 0
LINE
 8
 0
 10
 0.100482
 20
 0.234157
 30
 0.0000
 11
 0.107129
 21
 0.237614
 31
 0.0000
 0
LINE
 8
 0
 10
 0.107129
 20
 0.237614
 30
 0.0000
 11
 0.113990
 21
 0.240936
 31
 0.0000
 0
LINE
 8
 0
 10
 0.113990
 20
 0.240936
 30
 0.0000
 11
 0.121066
 21
 0.244119
 31
 0.0000
 0
LINE
 8
 0
 10
 0.121066
 20
 0.244119
 30
 0.0000
 11
 0.128356
 21
 0.247159
 31
 0.0000
 0
LINE
 8
 0
 10
 0.128356
 20
 0.247159
 30
 0.0000
 11
 0.135859
 21
 0.250051
 31
 0.0000
 0
LINE
 8
 0
 10
 0.135859
 20
 0.250051
 30
 0.0000
 11
 0.143577
 21
 0.252792
 31
 0.0000
 0
LINE
 8
 0
 10
 0.143577
 20
 0.252792
 30
 0.0000
 11
 0.151508
 21
 0.255377
 31
 0.0000
 0
LINE
 8
 0
 10
 0.151508
 20
 0.255377
 30
 0.0000
 11
 0.159652
 21
 0.257802
 31
 0.0000
 0
LINE
 8
 0
 10
 0.159652
 20
 0.257802
 30
 0.0000
 11
 0.168009
 21
 0.260064
 31
 0.0000
 0
LINE
 8
 0
 10
 0.168009
 20
 0.260064
 30
 0.0000
 11
 0.176578
 21
 0.262157
 31
 0.0000
 0
LINE
 8
 0
 10
 0.176578
 20
 0.262157
 30
 0.0000
 11
 0.185359
 21
 0.264078
 31
 0.0000
 0
LINE
 8
 0
 10
 0.185359
 20
 0.264078
 30
 0.0000
 11
 0.194351
 21
 0.265823
 31
 0.0000
 0
LINE
 8
 0
 10
 0.194351
 20
 0.265823
 30
 0.0000
 11
 0.203554
 21
 0.267388
 31
 0.0000
 0
LINE
 8
 0
 10
 0.203554
 20
 0.267388
 30
 0.0000
 11
 0.212967
 21
 0.268770
 31
 0.0000
 0
LINE
 8
 0
 10
 0.212967
 20
 0.268770
 30
 0.0000
 11
 0.222590
 21
 0.269965
 31
 0.0000
 0
LINE
 8
 0
 10
 0.222590
 20
 0.269965
 30
 0.0000
 11
 0.232421
 21
 0.270969
 31
 0.0000
 0
LINE
 8
 0
 10
 0.232421
 20
 0.270969
 30
 0.0000
 11
 0.242461
 21
 0.271778
 31
 0.0000
 0
LINE
 8
 0
 10
 0.242461
 20
 0.271778
 30
 0.0000
 11
 0.252708
 21
 0.272390
 31
 0.0000
 0
LINE
 8
 0
 10
 0.252708
 20
 0.272390
 30
 0.0000
 11
 0.263162
 21
 0.272801
 31
 0.0000
 0
LINE
 8
 0
 10
 0.263162
 20
 0.272801
 30
 0.0000
 11
 0.273821
 21
 0.273008
 31
 0.0000
 0
LINE
 8
 0
 10
 0.273821
 20
 0.273008
 30
 0.0000
 11
 0.284685
 21
 0.273007
 31
 0.0000
 0
LINE
 8
 0
 10
 0.284685
 20
 0.273007
 30
 0.0000
 11
 0.295752
 21
 0.272797
 31
 0.0000
 0
LINE
 8
 0
 10
 0.295752
 20
 0.272797
 30
 0.0000
 11
 0.307023
 21
 0.272374
 31
 0.0000
 0
LINE
 8
 0
 10
 0.307023
 20
 0.272374
 30
 0.0000
 11
 0.318495
 21
 0.271736
 31
 0.0000
 0
LINE
 8
 0
 10
 0.318495
 20
 0.271736
 30
 0.0000
 11
 0.330168
 21
 0.270879
 31
 0.0000
 0
LINE
 8
 0
 10
 0.330168
 20
 0.270879
 30
 0.0000
 11
 0.342040
 21
 0.269802
 31
 0.0000
 0
LINE
 8
 0
 10
 0.342040
 20
 0.269802
 30
 0.0000
 11
 0.354111
 21
 0.268503
 31
 0.0000
 0
LINE
 8
 0
 10
 0.354111
 20
 0.268503
 30
 0.0000
 11
 0.366379
 21
 0.266978
 31
 0.0000
 0
LINE
 8
 0
 10
 0.366379
 20
 0.266978
 30
 0.0000
 11
 0.378843
 21
 0.265227
 31
 0.0000
 0
LINE
 8
 0
 10
 0.378843
 20
 0.265227
 30
 0.0000
 11
 0.391501
 21
 0.263247
 31
 0.0000
 0
LINE
 8
 0
 10
 0.391501
 20
 0.263247
 30
 0.0000
 11
 0.404354
 21
 0.261037
 31
 0.0000
 0
LINE
 8
 0
 10
 0.404354
 20
 0.261037
 30
 0.0000
 11
 0.417398
 21
 0.258594
 31
 0.0000
 0
LINE
 8
 0
 10
 0.417398
 20
 0.258594
 30
 0.0000
 11
 0.430633
 21
 0.255918
 31
 0.0000
 0
LINE
 8
 0
 10
 0.430633
 20
 0.255918
 30
 0.0000
 11
 0.444057
 21
 0.253006
 31
 0.0000
 0
LINE
 8
 0
 10
 0.444057
 20
 0.253006
 30
 0.0000
 11
 0.457669
 21
 0.249858
 31
 0.0000
 0
LINE
 8
 0
 10
 0.457669
 20
 0.249858
 30
 0.0000
 11
 0.471468
 21
 0.246472
 31
 0.0000
 0
LINE
 8
 0
 10
 0.471468
 20
 0.246472
 30
 0.0000
 11
 0.485451
 21
 0.242846
 31
 0.0000
 0
LINE
 8
 0
 10
 0.485451
 20
 0.242846
 30
 0.0000
 11
 0.499618
 21
 0.238980
 31
 0.0000
 0
LINE
 8
 0
 10
 0.499618
 20
 0.238980
 30
 0.0000
 11
 0.513967
 21
 0.234872
 31
 0.0000
 0
LINE
 8
 0
 10
 0.513967
 20
 0.234872
 30
 0.0000
 11
 0.528496
 21
 0.230521
 31
 0.0000
 0
LINE
 8
 0
 10
 0.528496
 20
 0.230521
 30
 0.0000
 11
 0.543203
 21
 0.225925
 31
 0.0000
 0
LINE
 8
 0
 10
 0.543203
 20
 0.225925
 30
 0.0000
 11
 0.558087
 21
 0.221085
 31
 0.0000
 0
LINE
 8
 0
 10
 0.558087
 20
 0.221085
 30
 0.0000
 11
 0.573147
 21
 0.215998
 31
 0.0000
 0
LINE
 8
 0
 10
 0.573147
 20
 0.215998
 30
 0.0000
 11
 0.588380
 21
 0.210662
 31
 0.0000
 0
LINE
 8
 0
 10
 0.588380
 20
 0.210662
 30
 0.0000
 11
 0.603784
 21
 0.205078
 31
 0.0000
 0
LINE
 8
 0
 10
 0.603784
 20
 0.205078
 30
 0.0000
 11
 0.619358
 21
 0.199242
 31
 0.0000
 0
LINE
 8
 0
 10
 0.619358
 20
 0.199242
 30
 0.0000
 11
 0.635100
 21
 0.193153
 31
 0.0000
 0
LINE
 8
 0
 10
 0.635100
 20
 0.193153
 30
 0.0000
 11
 0.651008
 21
 0.186810
 31
 0.0000
 0
LINE
 8
 0
 10
 0.651008
 20
 0.186810
 30
 0.0000
 11
 0.667080
 21
 0.180209
 31
 0.0000
 0
LINE
 8
 0
 10
 0.667080
 20
 0.180209
 30
 0.0000
 11
 0.683313
 21
 0.173349
 31
 0.0000
 0
LINE
 8
 0
 10
 0.683313
 20
 0.173349
 30
 0.0000
 11
 0.699706
 21
 0.166227
 31
 0.0000
 0
LINE
 8
 0
 10
 0.699706
 20
 0.166227
 30
 0.0000
 11
 0.716255
 21
 0.158840
 31
 0.0000
 0
LINE
 8
 0
 10
 0.716255
 20
 0.158840
 30
 0.0000
 11
 0.732960
 21
 0.151185
 31
 0.0000
 0
LINE
 8
 0
 10
 0.732960
 20
 0.151185
 30
 0.0000
 11
 0.749817
 21
 0.143256
 31
 0.0000
 0
LINE
 8
 0
 10
 0.749817
 20
 0.143256
 30
 0.0000
 11
 0.766823
 21
 0.135051
 31
 0.0000
 0
LINE
 8
 0
 10
 0.766823
 20
 0.135051
 30
 0.0000
 11
 0.783977
 21
 0.126565
 31
 0.0000
 0
LINE
 8
 0
 10
 0.783977
 20
 0.126565
 30
 0.0000
 11
 0.801274
 21
 0.117791
 31
 0.0000
 0
LINE
 8
 0
 10
 0.801274
 20
 0.117791
 30
 0.0000
 11
 0.818713
 21
 0.108723
 31
 0.0000
 0
LINE
 8
 0
 10
 0.818713
 20
 0.108723
 30
 0.0000
 11
 0.836288
 21
 0.099356
 31
 0.0000
 0
LINE
 8
 0
 10
 0.836288
 20
 0.099356
 30
 0.0000
 11
 0.853998
 21
 0.089681
 31
 0.0000
 0
LINE
 8
 0
 10
 0.853998
 20
 0.089681
 30
 0.0000
 11
 0.871839
 21
 0.079690
 31
 0.0000
 0
LINE
 8
 0
 10
 0.871839
 20
 0.079690
 30
 0.0000
 11
 0.889806
 21
 0.069374
 31
 0.0000
 0
LINE
 8
 0
 10
 0.889806
 20
 0.069374
 30
 0.0000
 11
 0.907895
 21
 0.058722
 31
 0.0000
 0
LINE
 8
 0
 10
 0.907895
 20
 0.058722
 30
 0.0000
 11
 0.926101
 21
 0.047724
 31
 0.0000
 0
LINE
 8
 0
 10
 0.926101
 20
 0.047724
 30
 0.0000
 11
 0.944421
 21
 0.036367
 31
 0.0000
 0
LINE
 8
 0
 10
 0.944421
 20
 0.036367
 30
 0.0000
 11
 0.962847
 21
 0.024637
 31
 0.0000
 0
LINE
 8
 0
 10
 0.962847
 20
 0.024637
 30
 0.0000
 11
 0.981376
 21
 0.012520
 31
 0.0000
 0
LINE
 8
 0
 10
 0.981376
 20
 0.012520
 30
 0.0000
 11
 1.000000
 21
 -0.000000
 31
 0.0000
 0
LINE
 8
 0
 10
 1.000000
 20
 0.000000
 30
 0.0000
 11
 0.978424
 21
 -0.006153
 31
 0.0000
 0
LINE
 8
 0
 10
 0.978424
 20
 -0.006153
 30
 0.0000
 11
 0.957161
 21
 -0.012094
 31
 0.0000
 0
LINE
 8
 0
 10
 0.957161
 20
 -0.012094
 30
 0.0000
 11
 0.936204
 21
 -0.017837
 31
 0.0000
 0
LINE
 8
 0
 10
 0.936204
 20
 -0.017837
 30
 0.0000
 11
 0.915547
 21
 -0.023391
 31
 0.0000
 0
LINE
 8
 0
 10
 0.915547
 20
 -0.023391
 30
 0.0000
 11
 0.895187
 21
 -0.028767
 31
 0.0000
 0
LINE
 8
 0
 10
 0.895187
 20
 -0.028767
 30
 0.0000
 11
 0.875116
 21
 -0.033972
 31
 0.0000
 0
LINE
 8
 0
 10
 0.875116
 20
 -0.033972
 30
 0.0000
 11
 0.855332
 21
 -0.039015
 31
 0.0000
 0
LINE
 8
 0
 10
 0.855332
 20
 -0.039015
 30
 0.0000
 11
 0.835829
 21
 -0.043902
 31
 0.0000
 0
LINE
 8
 0
 10
 0.835829
 20
 -0.043902
 30
 0.0000
 11
 0.816604
 21
 -0.048638
 31
 0.0000
 0
LINE
 8
 0
 10
 0.816604
 20
 -0.048638
 30
 0.0000
 11
 0.797653
 21
 -0.053229
 31
 0.0000
 0
LINE
 8
 0
 10
 0.797653
 20
 -0.053229
 30
 0.0000
 11
 0.778973
 21
 -0.057678
 31
 0.0000
 0
LINE
 8
 0
 10
 0.778973
 20
 -0.057678
 30
 0.0000
 11
 0.760559
 21
 -0.061988
 31
 0.0000
 0
LINE
 8
 0
 10
 0.760559
 20
 -0.061988
 30
 0.0000
 11
 0.742410
 21
 -0.066163
 31
 0.0000
 0
LINE
 8
 0
 10
 0.742410
 20
 -0.066163
 30
 0.0000
 11
 0.724522
 21
 -0.070204
 31
 0.0000
 0
LINE
 8
 0
 10
 0.724522
 20
 -0.070204
 30
 0.0000
 11
 0.706893
 21
 -0.074112
 31
 0.0000
 0
LINE
 8
 0
 10
 0.706893
 20
 -0.074112
 30
 0.0000
 11
 0.689520
 21
 -0.077888
 31
 0.0000
 0
LINE
 8
 0
 10
 0.689520
 20
 -0.077888
 30
 0.0000
 11
 0.672399
 21
 -0.081534
 31
 0.0000
 0
LINE
 8
 0
 10
 0.672399
 20
 -0.081534
 30
 0.0000
 11
 0.655530
 21
 -0.085049
 31
 0.0000
 0
LINE
 8
 0
 10
 0.655530
 20
 -0.085049
 30
 0.0000
 11
 0.638910
 21
 -0.088433
 31
 0.0000
 0
LINE
 8
 0
 10
 0.638910
 20
 -0.088433
 30
 0.0000
 11
 0.622535
 21
 -0.091686
 31
 0.0000
 0
LINE
 8
 0
 10
 0.622535
 20
 -0.091686
 30
 0.0000
 11
 0.606406
 21
 -0.094807
 31
 0.0000
 0
LINE
 8
 0
 10
 0.606406
 20
 -0.094807
 30
 0.0000
 11
 0.590518
 21
 -0.097794
 31
 0.0000
 0
LINE
 8
 0
 10
 0.590518
 20
 -0.097794
 30
 0.0000
 11
 0.574871
 21
 -0.100647
 31
 0.0000
 0
LINE
 8
 0
 10
 0.574871
 20
 -0.100647
 30
 0.0000
 11
 0.559462
 21
 -0.103364
 31
 0.0000
 0
LINE
 8
 0
 10
 0.559462
 20
 -0.103364
 30
 0.0000
 11
 0.544290
 21
 -0.105944
 31
 0.0000
 0
LINE
 8
 0
 10
 0.544290
 20
 -0.105944
 30
 0.0000
 11
 0.529353
 21
 -0.108386
 31
 0.0000
 0
LINE
 8
 0
 10
 0.529353
 20
 -0.108386
 30
 0.0000
 11
 0.514648
 21
 -0.110687
 31
 0.0000
 0
LINE
 8
 0
 10
 0.514648
 20
 -0.110687
 30
 0.0000
 11
 0.500175
 21
 -0.112847
 31
 0.0000
 0
LINE
 8
 0
 10
 0.500175
 20
 -0.112847
 30
 0.0000
 11
 0.485931
 21
 -0.114863
 31
 0.0000
 0
LINE
 8
 0
 10
 0.485931
 20
 -0.114863
 30
 0.0000
 11
 0.471915
 21
 -0.116735
 31
 0.0000
 0
LINE
 8
 0
 10
 0.471915
 20
 -0.116735
 30
 0.0000
 11
 0.458126
 21
 -0.118459
 31
 0.0000
 0
LINE
 8
 0
 10
 0.458126
 20
 -0.118459
 30
 0.0000
 11
 0.444561
 21
 -0.120036
 31
 0.0000
 0
LINE
 8
 0
 10
 0.444561
 20
 -0.120036
 30
 0.0000
 11
 0.431220
 21
 -0.121463
 31
 0.0000
 0
LINE
 8
 0
 10
 0.431220
 20
 -0.121463
 30
 0.0000
 11
 0.418100
 21
 -0.122739
 31
 0.0000
 0
LINE
 8
 0
 10
 0.418100
 20
 -0.122739
 30
 0.0000
 11
 0.405200
 21
 -0.123863
 31
 0.0000
 0
LINE
 8
 0
 10
 0.405200
 20
 -0.123863
 30
 0.0000
 11
 0.392519
 21
 -0.124833
 31
 0.0000
 0
LINE
 8
 0
 10
 0.392519
 20
 -0.124833
 30
 0.0000
 11
 0.380056
 21
 -0.125649
 31
 0.0000
 0
LINE
 8
 0
 10
 0.380056
 20
 -0.125649
 30
 0.0000
 11
 0.367809
 21
 -0.126309
 31
 0.0000
 0
LINE
 8
 0
 10
 0.367809
 20
 -0.126309
 30
 0.0000
 11
 0.355776
 21
 -0.126814
 31
 0.0000
 0
LINE
 8
 0
 10
 0.355776
 20
 -0.126814
 30
 0.0000
 11
 0.343957
 21
 -0.127161
 31
 0.0000
 0
LINE
 8
 0
 10
 0.343957
 20
 -0.127161
 30
 0.0000
 11
 0.332350
 21
 -0.127352
 31
 0.0000
 0
LINE
 8
 0
 10
 0.332350
 20
 -0.127352
 30
 0.0000
 11
 0.320954
 21
 -0.127385
 31
 0.0000
 0
LINE
 8
 0
 10
 0.320954
 20
 -0.127385
 30
 0.0000
 11
 0.309767
 21
 -0.127260
 31
 0.0000
 0
LINE
 8
 0
 10
 0.309767
 20
 -0.127260
 30
 0.0000
 11
 0.298789
 21
 -0.126977
 31
 0.0000
 0
LINE
 8
 0
 10
 0.298789
 20
 -0.126977
 30
 0.0000
 11
 0.288019
 21
 -0.126537
 31
 0.0000
 0
LINE
 8
 0
 10
 0.288019
 20
 -0.126537
 30
 0.0000
 11
 0.277455
 21
 -0.125940
 31
 0.0000
 0
LINE
 8
 0
 10
 0.277455
 20
 -0.125940
 30
 0.0000
 11
 0.267096
 21
 -0.125186
 31
 0.0000
 0
LINE
 8
 0
 10
 0.267096
 20
 -0.125186
 30
 0.0000
 11
 0.256941
 21
 -0.124276
 31
 0.0000
 0
LINE
 8
 0
 10
 0.256941
 20
 -0.124276
 30
 0.0000
 11
 0.246990
 21
 -0.123211
 31
 0.0000
 0
LINE
 8
 0
 10
 0.246990
 20
 -0.123211
 30
 0.0000
 11
 0.237242
 21
 -0.121992
 31
 0.0000
 0
LINE
 8
 0
 10
 0.237242
 20
 -0.121992
 30
 0.0000
 11
 0.227695
 21
 -0.120620
 31
 0.0000
 0
LINE
 8
 0
 10
 0.227695
 20
 -0.120620
 30
 0.0000
 11
 0.218349
 21
 -0.119096
 31
 0.0000
 0
LINE
 8
 0
 10
 0.218349
 20
 -0.119096
 30
 0.0000
 11
 0.209203
 21
 -0.117423
 31
 0.0000
 0
LINE
 8
 0
 10
 0.209203
 20
 -0.117423
 30
 0.0000
 11
 0.200256
 21
 -0.115600
 31
 0.0000
 0
LINE
 8
 0
 10
 0.200256
 20
 -0.115600
 30
 0.0000
 11
 0.191508
 21
 -0.113631
 31
 0.0000
 0
LINE
 8
 0
 10
 0.191508
 20
 -0.113631
 30
 0.0000
 11
 0.182958
 21
 -0.111517
 31
 0.0000
 0
LINE
 8
 0
 10
 0.182958
 20
 -0.111517
 30
 0.0000
 11
 0.174605
 21
 -0.109261
 31
 0.0000
 0
LINE
 8
 0
 10
 0.174605
 20
 -0.109261
 30
 0.0000
 11
 0.166448
 21
 -0.106863
 31
 0.0000
 0
LINE
 8
 0
 10
 0.166448
 20
 -0.106863
 30
 0.0000
 11
 0.158489
 21
 -0.104328
 31
 0.0000
 0
LINE
 8
 0
 10
 0.158489
 20
 -0.104328
 30
 0.0000
 11
 0.150725
 21
 -0.101656
 31
 0.0000
 0
LINE
 8
 0
 10
 0.150725
 20
 -0.101656
 30
 0.0000
 11
 0.143156
 21
 -0.098850
 31
 0.0000
 0
LINE
 8
 0
 10
 0.143156
 20
 -0.098850
 30
 0.0000
 11
 0.135782
 21
 -0.095914
 31
 0.0000
 0
LINE
 8
 0
 10
 0.135782
 20
 -0.095914
 30
 0.0000
 11
 0.128603
 21
 -0.092849
 31
 0.0000
 0
LINE
 8
 0
 10
 0.128603
 20
 -0.092849
 30
 0.0000
 11
 0.121619
 21
 -0.089658
 31
 0.0000
 0
LINE
 8
 0
 10
 0.121619
 20
 -0.089658
 30
 0.0000
 11
 0.114829
 21
 -0.086345
 31
 0.0000
 0
LINE
 8
 0
 10
 0.114829
 20
 -0.086345
 30
 0.0000
 11
 0.108232
 21
 -0.082911
 31
 0.0000
 0
LINE
 8
 0
 10
 0.108232
 20
 -0.082911
 30
 0.0000
 11
 0.101830
 21
 -0.079360
 31
 0.0000
 0
LINE
 8
 0
 10
 0.101830
 20
 -0.079360
 30
 0.0000
 11
 0.095621
 21
 -0.075695
 31
 0.0000
 0
LINE
 8
 0
 10
 0.095621
 20
 -0.075695
 30
 0.0000
 11
 0.089605
 21
 -0.071918
 31
 0.0000
 0
LINE
 8
 0
 10
 0.089605
 20
 -0.071918
 30
 0.0000
 11
 0.083783
 21
 -0.068033
 31
 0.0000
 0
LINE
 8
 0
 10
 0.083783
 20
 -0.068033
 30
 0.0000
 11
 0.078155
 21
 -0.064042
 31
 0.0000
 0
LINE
 8
 0
 10
 0.078155
 20
 -0.064042
 30
 0.0000
 11
 0.072720
 21
 -0.059949
 31
 0.0000
 0
LINE
 8
 0
 10
 0.072720
 20
 -0.059949
 30
 0.0000
 11
 0.067479
 21
 -0.055755
 31
 0.0000
 0
LINE
 8
 0
 10
 0.067479
 20
 -0.055755
 30
 0.0000
 11
 0.062431
 21
 -0.051466
 31
 0.0000
 0
LINE
 8
 0
 10
 0.062431
 20
 -0.051466
 30
 0.0000
 11
 0.057577
 21
 -0.047082
 31
 0.0000
 0
LINE
 8
 0
 10
 0.057577
 20
 -0.047082
 30
 0.0000
 11
 0.052917
 21
 -0.042607
 31
 0.0000
 0
LINE
 8
 0
 10
 0.052917
 20
 -0.042607
 30
 0.0000
 11
 0.048452
 21
 -0.038045
 31
 0.0000
 0
LINE
 8
 0
 10
 0.048452
 20
 -0.038045
 30
 0.0000
 11
 0.044180
 21
 -0.033397
 31
 0.0000
 0
LINE
 8
 0
 10
 0.044180
 20
 -0.033397
 30
 0.0000
 11
 0.040103
 21
 -0.028666
 31
 0.0000
 0
LINE
 8
 0
 10
 0.040103
 20
 -0.028666
 30
 0.0000
 11
 0.036222
 21
 -0.023855
 31
 0.0000
 0
LINE
 8
 0
 10
 0.036222
 20
 -0.023855
 30
 0.0000
 11
 0.032535
 21
 -0.018966
 31
 0.0000
 0
LINE
 8
 0
 10
 0.032535
 20
 -0.018966
 30
 0.0000
 11
 0.029044
 21
 -0.014003
 31
 0.0000
 0
LINE
 8
 0
 10
 0.029044
 20
 -0.014003
 30
 0.0000
 11
 0.025748
 21
 -0.008967
 31
 0.0000
 0
LINE
 8
 0
 10
 0.025748
 20
 -0.008967
 30
 0.0000
 11
 0.022649
 21
 -0.003860
 31
 0.0000
 0
LINE
 8
 0
 10
 0.022649
 20
 -0.003860
 30
 0.0000
 11
 0.019746
 21
 0.001315
 31
 0.0000
 0
LINE
 8
 0
 10
 0.019746
 20
 0.001315
 30
 0.0000
 11
 0.017041
 21
 0.006555
 31
 0.0000
 0
LINE
 8
 0
 10
 0.017041
 20
 0.006555
 30
 0.0000
 11
 0.014532
 21
 0.011861
 31
 0.0000
 0
LINE
 8
 0
 10
 0.014532
 20
 0.011861
 30
 0.0000
 11
 0.012222
 21
 0.017228
 31
 0.0000
 0
LINE
 8
 0
 10
 0.012222
 20
 0.017228
 30
 0.0000
 11
 0.010109
 21
 0.022656
 31
 0.0000
 0
LINE
 8
 0
 10
 0.010109
 20
 0.022656
 30
 0.0000
 11
 0.008196
 21
 0.028143
 31
 0.0000
 0
LINE
 8
 0
 10
 0.008196
 20
 0.028143
 30
 0.0000
 11
 0.006482
 21
 0.033688
 31
 0.0000
 0
LINE
 8
 0
 10
 0.006482
 20
 0.033688
 30
 0.0000
 11
 0.004967
 21
 0.039290
 31
 0.0000
 0
LINE
 8
 0
 10
 0.004967
 20
 0.039290
 30
 0.0000
 11
 0.003652
 21
 0.044946
 31
 0.0000
 0
LINE
 8
 0
 10
 0.003652
 20
 0.044946
 30
 0.0000
 11
 0.002539
 21
 0.050657
 31
 0.0000
 0
LINE
 8
 0
 10
 0.002539
 20
 0.050657
 30
 0.0000
 11
 0.001626
 21
 0.056421
 31
 0.0000
 0
LINE
 8
 0
 10
 0.001626
 20
 0.056421
 30
 0.0000
 11
 0.000916
 21
 0.062238
 31
 0.0000
 0
LINE
 8
 0
 10
 0.000916
 20
 0.062238
 30
 0.0000
 11
 0.000407
 21
 0.068107
 31
 0.0000
 0
LINE
 8
 0
 10
 0.000407
 20
 0.068107
 30
 0.0000
 11
 0.000102
 21
 0.074028
 31
 0.0000
 0
LINE
 8
 0
 10
 0.000102
 20
 0.074028
 30
 0.0000
 11
 0.000000
 21
 0.080000
 31
 0.0000
 0
ENDSEC
 0
EOF
